<?xml version="1.0" encoding="UTF-8"?> <!-- Generator: Adobe Illustrator 25.2.0, SVG Export Plug-In . SVG Version: 6.00 Build 0) --> <svg xmlns="http://www.w3.org/2000/svg" xmlns:xlink="http://www.w3.org/1999/xlink" version="1.1" id="Ebene_1" x="0px" y="0px" viewBox="0 0 602.7 295.4" style="enable-background:new 0 0 602.7 295.4;" xml:space="preserve"> <style type="text/css"> .st0{fill:#FFFFFF;} </style> <g> <g> <path class="st0" d="M182.4,252.6c1.4,0,2.6,0.2,3.5,0.6c0.9,0.4,1.7,0.9,2.2,1.5c0.5,0.6,0.9,1.2,1.1,1.9 c0.2,0.7,0.3,1.3,0.3,1.9c0,0.6-0.1,1.3-0.3,2s-0.5,1.3-1,1.9c-0.5,0.6-1.1,1-1.8,1.4c-0.7,0.4-1.6,0.6-2.6,0.7v0.1l0.3,0.2 c0.3,0.1,0.5,0.3,0.7,0.5c0.2,0.2,0.4,0.5,0.7,0.9s0.7,1,1.2,1.8c0.5,0.8,1.2,1.8,2,3.1c0.3,0.4,0.6,0.8,0.8,1.2s0.6,0.6,0.9,0.9 c0.3,0.2,0.6,0.4,1,0.6c0.3,0.1,0.7,0.2,1.2,0.2c0.1,0,0.2,0,0.3,0s0.2,0,0.3,0v1.2c-0.3,0.2-0.6,0.3-0.9,0.3 c-0.3,0-0.7,0.1-1.1,0.1c-0.6,0-1.2-0.1-1.6-0.3c-0.5-0.2-0.9-0.4-1.2-0.7c-0.4-0.3-0.7-0.6-1-1c-0.3-0.4-0.6-0.8-0.9-1.3 l-2.5-3.7c-0.4-0.6-0.7-1.1-1-1.5c-0.3-0.4-0.6-0.7-0.9-1c-0.3-0.3-0.7-0.4-1.1-0.5c-0.4-0.1-0.9-0.2-1.5-0.2h-1.4v9.8h-2.9v-22.2 H182.4z M178.1,263.5h3.3c0.8,0,1.6-0.1,2.2-0.4c0.6-0.3,1.2-0.7,1.6-1.2c0.4-0.5,0.8-1,1-1.6c0.2-0.6,0.3-1.2,0.3-1.7 c0-0.7-0.1-1.3-0.4-1.9c-0.2-0.6-0.6-1.1-1.1-1.5s-1-0.7-1.7-1c-0.6-0.2-1.4-0.3-2.2-0.3h-3.2V263.5z"></path> <path class="st0" d="M199.1,259.8c0.5-1.4,1.2-2.6,2.1-3.7c1-1.1,2.2-2.1,3.7-2.8c1.5-0.7,3.3-1.1,5.4-1.1c2.1,0,3.9,0.4,5.5,1.1 c1.6,0.8,2.8,1.7,3.9,2.8c1,1.1,1.8,2.4,2.3,3.7s0.7,2.6,0.7,3.8c0,0.8-0.1,1.6-0.3,2.5c-0.2,0.9-0.5,1.7-1,2.6 c-0.4,0.9-1,1.7-1.7,2.4c-0.7,0.8-1.5,1.5-2.4,2s-2,1.1-3.1,1.4s-2.4,0.5-3.9,0.5c-2.1,0-3.9-0.4-5.4-1.1 c-1.5-0.8-2.7-1.7-3.7-2.8s-1.7-2.4-2.1-3.7c-0.5-1.3-0.7-2.6-0.7-3.8C198.4,262.5,198.7,261.2,199.1,259.8z M202.2,267.7 c0.5,1.2,1.1,2.3,1.9,3.2c0.8,0.9,1.7,1.6,2.8,2.1c1.1,0.5,2.3,0.7,3.5,0.7c1.2,0,2.4-0.2,3.5-0.7c1.1-0.5,2.1-1.2,2.9-2.1 c0.8-0.9,1.5-2,2-3.2c0.5-1.2,0.7-2.6,0.7-4.1s-0.2-2.8-0.7-4.1c-0.5-1.2-1.1-2.3-2-3.2c-0.8-0.9-1.8-1.6-2.9-2.1 c-1.1-0.5-2.3-0.7-3.5-0.7c-1.3,0-2.4,0.2-3.5,0.7c-1.1,0.5-2,1.2-2.8,2.1c-0.8,0.9-1.4,2-1.9,3.2c-0.5,1.2-0.7,2.6-0.7,4.1 S201.8,266.5,202.2,267.7z"></path> <path class="st0" d="M229.2,259.8c0.5-1.4,1.2-2.6,2.1-3.7c1-1.1,2.2-2.1,3.7-2.8c1.5-0.7,3.3-1.1,5.4-1.1c2.1,0,3.9,0.4,5.5,1.1 c1.6,0.8,2.8,1.7,3.9,2.8c1,1.1,1.8,2.4,2.3,3.7s0.7,2.6,0.7,3.8c0,0.8-0.1,1.6-0.3,2.5c-0.2,0.9-0.5,1.7-1,2.6 c-0.4,0.9-1,1.7-1.7,2.4c-0.7,0.8-1.5,1.5-2.4,2s-2,1.1-3.1,1.4s-2.4,0.5-3.9,0.5c-2.1,0-3.9-0.4-5.4-1.1 c-1.5-0.8-2.7-1.7-3.7-2.8s-1.7-2.4-2.1-3.7c-0.5-1.3-0.7-2.6-0.7-3.8C228.5,262.5,228.8,261.2,229.2,259.8z M232.3,267.7 c0.5,1.2,1.1,2.3,1.9,3.2c0.8,0.9,1.7,1.6,2.8,2.1c1.1,0.5,2.3,0.7,3.5,0.7c1.2,0,2.4-0.2,3.5-0.7c1.1-0.5,2.1-1.2,2.9-2.1 c0.8-0.9,1.5-2,2-3.2c0.5-1.2,0.7-2.6,0.7-4.1s-0.2-2.8-0.7-4.1c-0.5-1.2-1.1-2.3-2-3.2c-0.8-0.9-1.8-1.6-2.9-2.1 c-1.1-0.5-2.3-0.7-3.5-0.7c-1.3,0-2.4,0.2-3.5,0.7c-1.1,0.5-2,1.2-2.8,2.1c-0.8,0.9-1.4,2-1.9,3.2c-0.5,1.2-0.7,2.6-0.7,4.1 S231.9,266.5,232.3,267.7z"></path> <path class="st0" d="M275.2,252.6v1.7h-11.4v8h9.8v1.5h-9.8v11h-2.9v-22.2H275.2z"></path> <path class="st0" d="M302.8,274.8h-2.7v-1.3c-0.8,0.4-1.8,0.8-3,1.2c-1.2,0.3-2.6,0.5-4.2,0.5c-2.1,0-3.9-0.3-5.5-1 c-1.5-0.7-2.8-1.6-3.8-2.7c-1-1.1-1.7-2.4-2.2-3.8c-0.5-1.4-0.7-2.9-0.7-4.4c0-1.8,0.3-3.3,0.9-4.7c0.6-1.4,1.5-2.6,2.6-3.5 c1.1-1,2.4-1.7,3.9-2.2s3.2-0.8,5-0.8c1.6,0,2.9,0.2,4.1,0.5c1.2,0.3,2.1,0.8,2.9,1.3c0.8,0.5,1.4,1.1,1.9,1.6 c0.5,0.6,0.8,1.1,1,1.6h-2.3c-0.1-0.4-0.4-0.9-0.8-1.3c-0.4-0.4-1-0.8-1.7-1.2s-1.4-0.6-2.3-0.8c-0.9-0.2-1.8-0.3-2.8-0.3 c-1.5,0-2.8,0.2-3.9,0.7c-1.1,0.5-2.1,1.2-2.9,2.1c-0.8,0.9-1.4,1.9-1.8,3.2c-0.4,1.2-0.6,2.6-0.6,4c0,1.5,0.2,2.8,0.6,4.1 c0.4,1.2,1,2.3,1.9,3.2c0.8,0.9,1.9,1.6,3.1,2.1s2.7,0.8,4.4,0.8c1.3,0,2.4-0.1,3.4-0.4c1-0.3,2-0.8,2.9-1.4v-5.7h-3.6v-1.3h6.2 V274.8z"></path> <path class="st0" d="M312.6,268.2l-2.8,6.5h-1.5l9.4-22.2h1.6l10.3,22.2h-3.1l-3-6.5H312.6z M317.9,256.1h-0.1l-4.6,10.7h9.7 L317.9,256.1z"></path> <path class="st0" d="M344.3,252.6c1.4,0,2.6,0.2,3.5,0.6c0.9,0.4,1.7,0.9,2.2,1.5c0.5,0.6,0.9,1.2,1.1,1.9 c0.2,0.7,0.3,1.3,0.3,1.9c0,0.6-0.1,1.3-0.3,2s-0.5,1.3-1,1.9c-0.5,0.6-1.1,1-1.8,1.4c-0.7,0.4-1.6,0.6-2.6,0.7v0.1l0.3,0.2 c0.3,0.1,0.5,0.3,0.7,0.5c0.2,0.2,0.4,0.5,0.7,0.9s0.7,1,1.2,1.8c0.5,0.8,1.2,1.8,2,3.1c0.3,0.4,0.6,0.8,0.8,1.2s0.6,0.6,0.9,0.9 c0.3,0.2,0.6,0.4,1,0.6c0.3,0.1,0.7,0.2,1.2,0.2c0.1,0,0.2,0,0.3,0s0.2,0,0.3,0v1.2c-0.3,0.2-0.6,0.3-0.9,0.3 c-0.3,0-0.7,0.1-1.1,0.1c-0.6,0-1.2-0.1-1.6-0.3c-0.5-0.2-0.9-0.4-1.2-0.7c-0.4-0.3-0.7-0.6-1-1c-0.3-0.4-0.6-0.8-0.9-1.3 l-2.5-3.7c-0.4-0.6-0.7-1.1-1-1.5c-0.3-0.4-0.6-0.7-0.9-1c-0.3-0.3-0.7-0.4-1.1-0.5c-0.4-0.1-0.9-0.2-1.5-0.2H340v9.8h-2.9v-22.2 H344.3z M340,263.5h3.3c0.8,0,1.6-0.1,2.2-0.4c0.6-0.3,1.2-0.7,1.6-1.2c0.4-0.5,0.8-1,1-1.6c0.2-0.6,0.3-1.2,0.3-1.7 c0-0.7-0.1-1.3-0.4-1.9c-0.2-0.6-0.6-1.1-1.1-1.5s-1-0.7-1.7-1c-0.6-0.2-1.4-0.3-2.2-0.3H340V263.5z"></path> <path class="st0" d="M362.8,274.8v-22.2h7.3c1.8,0,3.4,0.3,4.8,0.8c1.5,0.6,2.7,1.3,3.8,2.3c1,1,1.9,2.2,2.4,3.5 c0.6,1.4,0.9,2.8,0.9,4.4c0,1.6-0.3,3.1-0.9,4.5s-1.4,2.5-2.5,3.5c-1,1-2.3,1.8-3.7,2.3s-2.9,0.8-4.5,0.8H362.8z M365.7,273.4h3.5 c1.7,0,3.2-0.3,4.4-0.9c1.2-0.6,2.2-1.3,3-2.3c0.8-0.9,1.3-2,1.7-3.1c0.4-1.2,0.5-2.3,0.5-3.4c0-1.3-0.2-2.5-0.6-3.7 c-0.4-1.2-1-2.2-1.9-3.1c-0.8-0.9-1.8-1.6-3-2.1c-1.2-0.5-2.6-0.8-4.1-0.8h-3.5V273.4z"></path> <path class="st0" d="M403.8,252.6v1.7h-11.4v8h9.8v1.5h-9.8v9.3h11.4v1.7h-14.3v-22.2H403.8z"></path> <path class="st0" d="M430.5,252.6v22.6h-0.2l-17.6-17.3h-0.1v17h-1.5v-22.6h0.2l17.6,17.3h0.1v-17H430.5z"></path> </g> <g> <path class="st0" d="M31.5,173.5h7v4.6c3-4,6.9-5.4,10.1-5.4c8.3,0,9.8,6.3,9.8,10.8v36.6h-7v-33.3c0-3.6-1.4-7.2-5.9-7.2 c-5.7,0-6.9,5.6-6.9,8.6v32h-7V173.5z"></path> <path class="st0" d="M104.8,220.1h-7v-4.6c-3,4-6.9,5.4-10.1,5.4c-8.3,0-9.8-6.3-9.8-10.8v-36.6h7v33.3c0,3.6,1.4,7.2,5.9,7.2 c5.7,0,6.9-5.6,6.9-8.6v-32h7V220.1z"></path> <path class="st0" d="M131.4,154.3v54.1c0,1.9,0.8,5.2,5.2,5.2h1v6.5h-2.2c-7.1,0-11.1-4.2-11.1-10.3v-55.5H131.4z"></path> <path class="st0" d="M160.7,154.3v54.1c0,1.9,0.8,5.2,5.2,5.2h1v6.5h-2.2c-7.1,0-11.1-4.2-11.1-10.3v-55.5H160.7z"></path> <path class="st0" d="M200.8,185.8c-0.5-5.3-3.4-6.4-6.3-6.4c-3.5,0-6,1.3-6,6c0,3.7,2.5,5.2,5.5,6.6l5.8,2.8c4.3,2.2,8,4.9,8,12.7 c0,3.9-1.4,13.3-13.6,13.3c-10.4,0-13.4-6.9-13.6-13.3h7.1c0.4,5,2.6,6.8,6.3,6.8c4.9,0,6.8-2.7,6.8-6.8c0-3.5-1.1-5.3-5.9-7.6 l-5.7-2.8c-6.9-3.3-7.7-7.5-7.7-12.3c0-6.3,4.1-12,13.4-12c10.2,0,12.8,7.2,13,13.1H200.8z"></path> <path class="st0" d="M244.8,207h7v0.7c0,4.6-2.2,13.2-13,13.2c-11.7,0-13.6-9.5-13.6-13.5v-21.6c0-3.7,2-13,13.2-13 c11.1,0,13.6,9.3,13.6,13.3v13.3h-19.7v7.4c0,5,2.3,7.1,6.6,7.1c4.1,0,5.9-2.5,5.9-6.4V207z M245,194.2v-8c0-3-1.4-6.6-6.3-6.6 c-5,0-6.4,4-6.4,7v7.6H245z"></path> <path class="st0" d="M290.7,205.8h7v1.9c0,4.6-2.8,13.2-13.6,13.2c-11.7,0-13.6-9.5-13.6-13.5v-21.1c0-3.9,2-13.4,13.6-13.4 c11.1,0,13.6,8.6,13.6,13.1v2.1h-7v-0.7c0-5.3-3-7.6-6.6-7.6c-3.7,0-6.6,2.4-6.6,7.6v19.2c0,5,2.3,7.6,6.6,7.6 c4.1,0,6.6-2.5,6.6-7.6V205.8z"></path> <path class="st0" d="M314.8,154.3h7v23.8c3-4,6.9-5.4,10.1-5.4c8.3,0,9.8,6.3,9.8,10.8v36.6h-7v-33.3c0-3.6-1.4-7.2-5.9-7.2 c-5.7,0-6.9,5.6-6.9,8.6v32h-7V154.3z"></path> <path class="st0" d="M379.2,185.8c-0.5-5.3-3.4-6.4-6.3-6.4c-3.5,0-6,1.3-6,6c0,3.7,2.5,5.2,5.5,6.6l5.8,2.8c4.3,2.2,8,4.9,8,12.7 c0,3.9-1.4,13.3-13.6,13.3c-10.4,0-13.4-6.9-13.6-13.3h7.1c0.4,5,2.6,6.8,6.3,6.8c4.9,0,6.8-2.7,6.8-6.8c0-3.5-1.1-5.3-5.9-7.6 l-5.7-2.8c-6.9-3.3-7.7-7.5-7.7-12.3c0-6.3,4.1-12,13.4-12c10.2,0,12.8,7.2,13,13.1H379.2z"></path> <path class="st0" d="M404,173.5h7v4.6c3-4,6.9-5.4,10.1-5.4c8.3,0,9.8,6.3,9.8,10.8v36.6h-7v-33.3c0-3.6-1.4-7.2-5.9-7.2 c-5.7,0-6.9,5.6-6.9,8.6v32h-7V173.5z"></path> <path class="st0" d="M469.6,207h7v0.7c0,4.6-2.2,13.2-13,13.2c-11.7,0-13.6-9.5-13.6-13.5v-21.6c0-3.7,2-13,13.2-13 c11.1,0,13.6,9.3,13.6,13.3v13.3h-19.7v7.4c0,5,2.3,7.1,6.6,7.1c4.1,0,5.9-2.5,5.9-6.4V207z M469.8,194.2v-8c0-3-1.4-6.6-6.3-6.6 c-5,0-6.4,4-6.4,7v7.6H469.8z"></path> <path class="st0" d="M522.6,220.1h-7v-4.6c-3,4-6.9,5.4-10.1,5.4c-8.3,0-9.8-6.3-9.8-10.8v-36.6h7v33.3c0,3.6,1.4,7.2,5.9,7.2 c5.7,0,6.9-5.6,6.9-8.6v-32h7V220.1z"></path> <path class="st0" d="M542.1,173.5h7v4.6c3-4,6.9-5.4,10.1-5.4c8.3,0,9.8,6.3,9.8,10.8v36.6h-7v-33.3c0-3.6-1.4-7.2-5.9-7.2 c-5.7,0-6.9,5.6-6.9,8.6v32h-7V173.5z"></path> </g> <path class="st0" d="M302.8,13.1l-34.9,31.6l-0.3,52.6c-0.1,17.5,15.2,31.7,34.1,31.9c0.1,0,0.2,0,0.2,0c9,0,17.5-3.2,24-9 c6.6-5.9,10.2-13.9,10.3-22.4l0.3-53.5L302.8,13.1z M305.8,24.1l23.4,21.8l-23.4,26.8V24.1z M299.8,23.9v70.3l-26-32.1l0.1-14.7 L299.8,23.9z M273.6,97.4l0.2-25.8l26.1,32.2v19.4C285.1,122.2,273.5,111,273.6,97.4z M321.8,115.8c-4.4,4-10,6.5-16,7.2V81.7 l24.6-28.1l-0.3,44.1C330.1,104.6,327.1,111,321.8,115.8z"></path> </g> </svg> 